<svg xmlns="http://www.w3.org/2000/svg" xmlns:xlink="http://www.w3.org/1999/xlink" version="1.1" width="510" height="510" style="enable-background:new 0 0 510 510;" xml:space="preserve"><rect id="backgroundrect" width="100%" height="100%" x="0" y="0" fill="none" stroke="none"/>
















<g class="currentLayer" style=""><title>Layer 1</title><g id="svg_1" class="selected" opacity="1" fill-opacity="1" fill="#a8a8a8">
	<g id="camera-alt" opacity="1" fill="#a8a8a8">
		<circle cx="255" cy="280.5" r="81.5999984741211" id="svg_2" opacity="1" fill="#a8a8a8"/>
		<path d="M178.5,25.5l-45.9,51H51c-28.05,0-51,22.95-51,51v306c0,28.05,22.95,51,51,51h408c28.05,0,51-22.95,51-51v-306    c0-28.05-22.95-51-51-51h-81.6l-45.9-51H178.5z M255,408c-71.4,0-127.5-56.1-127.5-127.5c0-71.4,56.1-127.5,127.5-127.5    c71.4,0,127.5,56.1,127.5,127.5C382.5,351.9,326.4,408,255,408z" id="svg_3" opacity="1" fill="#a8a8a8"/>
	</g>
</g><g id="svg_4">
</g><g id="svg_5">
</g><g id="svg_6">
</g><g id="svg_7">
</g><g id="svg_8">
</g><g id="svg_9">
</g><g id="svg_10">
</g><g id="svg_11">
</g><g id="svg_12">
</g><g id="svg_13">
</g><g id="svg_14">
</g><g id="svg_15">
</g><g id="svg_16">
</g><g id="svg_17">
</g><g id="svg_18">
</g></g></svg>