<?xml version="1.0" standalone="no"?>
<!DOCTYPE svg PUBLIC "-//W3C//DTD SVG 20010904//EN"
 "http://www.w3.org/TR/2001/REC-SVG-20010904/DTD/svg10.dtd">
<svg version="1.0" xmlns="http://www.w3.org/2000/svg"
 width="1676.000000pt" height="1676.000000pt" viewBox="0 0 1676.000000 1676.000000"
 preserveAspectRatio="xMidYMid meet">
<metadata>
Created by potrace 1.11, written by Peter Selinger 2001-2013
</metadata>
<g transform="translate(0.000000,1676.000000) scale(0.100000,-0.100000)"
fill="#000000" stroke="none">
<path d="M4005 16180 c-3 -5 -21 -10 -39 -10 -40 0 -149 -35 -154 -49 -2 -6
-12 -11 -23 -11 -10 0 -19 -4 -19 -10 0 -5 -6 -10 -13 -10 -8 0 -22 -9 -32
-20 -10 -11 -22 -20 -27 -20 -21 0 -162 -157 -194 -215 -23 -42 -57 -101 -76
-132 -17 -28 -45 -97 -65 -155 -3 -10 -9 -18 -14 -18 -5 0 -9 -11 -9 -24 0
-14 -4 -27 -8 -30 -5 -3 -14 -31 -21 -63 -13 -59 -26 -103 -42 -138 -4 -11
-13 -47 -20 -80 -6 -33 -15 -78 -21 -100 -5 -22 -12 -67 -15 -100 -2 -33 -9
-61 -14 -63 -5 -2 -9 -26 -9 -53 0 -27 -4 -49 -10 -49 -5 0 -10 -19 -10 -43 0
-24 -4 -47 -9 -52 -7 -8 -24 -158 -37 -330 -2 -22 -8 -85 -13 -140 -19 -197
-23 -252 -27 -405 -3 -85 -9 -164 -15 -175 -5 -12 -10 -309 -12 -730 -2 -630
-4 -713 -18 -740 -47 -88 -60 -116 -80 -180 -12 -38 -27 -81 -34 -95 -24 -47
-34 -75 -40 -110 -4 -19 -13 -48 -20 -65 -7 -16 -15 -41 -18 -55 -3 -14 -13
-52 -22 -85 -9 -33 -24 -100 -32 -150 -8 -49 -19 -98 -24 -107 -5 -10 -9 -36
-9 -58 0 -22 -4 -40 -9 -40 -18 0 -23 -123 -23 -570 0 -442 4 -555 23 -575 5
-5 9 -24 9 -42 0 -17 4 -42 9 -55 5 -13 14 -61 21 -108 6 -47 15 -96 20 -110
5 -14 16 -52 26 -85 10 -33 20 -62 24 -65 3 -3 11 -34 18 -69 7 -35 17 -71 22
-80 13 -25 46 -110 65 -170 10 -30 29 -77 44 -105 15 -28 33 -70 40 -93 8 -24
18 -43 23 -43 4 0 8 -7 8 -15 0 -9 10 -32 23 -53 13 -20 29 -53 37 -72 7 -19
20 -44 29 -55 16 -20 27 -39 74 -126 13 -26 36 -62 51 -81 14 -19 26 -39 26
-44 0 -5 14 -23 30 -41 17 -18 30 -37 30 -44 0 -7 15 -30 33 -53 18 -23 49
-63 67 -91 19 -27 36 -52 39 -55 3 -3 22 -25 40 -50 19 -25 41 -49 48 -53 7
-4 13 -13 13 -18 0 -6 24 -36 53 -67 30 -31 80 -86 113 -122 118 -130 294
-301 439 -425 32 -27 69 -60 82 -72 13 -13 26 -23 29 -23 6 0 76 -54 109 -83
11 -10 32 -26 48 -35 15 -9 27 -20 27 -24 0 -4 6 -8 13 -8 7 0 22 -8 33 -18
10 -10 46 -35 79 -57 33 -22 67 -47 76 -57 9 -10 24 -18 33 -18 9 0 16 -4 16
-10 0 -5 6 -10 14 -10 8 0 16 -4 18 -8 3 -9 114 -82 124 -82 3 0 18 -8 32 -19
15 -10 43 -28 63 -39 76 -42 84 -47 89 -52 6 -6 82 -46 212 -112 96 -49 97
-49 78 -68 -11 -11 -26 -20 -33 -20 -7 0 -28 -13 -47 -30 -19 -16 -40 -29 -45
-30 -6 0 -17 -9 -25 -20 -8 -11 -19 -20 -25 -20 -6 0 -31 -20 -55 -45 -24 -25
-48 -45 -52 -45 -11 0 -218 -210 -218 -222 0 -5 -16 -22 -35 -39 -19 -17 -35
-36 -35 -41 0 -5 -12 -22 -28 -36 -15 -15 -33 -39 -41 -54 -8 -16 -18 -28 -23
-28 -4 0 -8 -7 -8 -15 0 -8 -4 -15 -10 -15 -5 0 -10 -9 -10 -20 0 -11 -4 -20
-9 -20 -10 0 -81 -105 -81 -120 0 -5 -4 -10 -10 -10 -5 0 -10 -7 -10 -15 0 -9
-9 -25 -20 -37 -11 -12 -20 -30 -20 -39 0 -10 -4 -19 -8 -21 -5 -1 -25 -39
-46 -83 -20 -44 -44 -91 -52 -105 -8 -14 -18 -33 -21 -43 -3 -9 -9 -17 -14
-17 -5 0 -9 -8 -9 -18 0 -21 -35 -119 -48 -135 -5 -7 -13 -28 -17 -47 -4 -19
-11 -39 -15 -45 -4 -5 -14 -36 -21 -68 -7 -32 -16 -60 -21 -63 -4 -3 -8 -21
-8 -40 0 -19 -4 -34 -10 -34 -5 0 -10 -9 -10 -20 0 -11 -4 -28 -10 -38 -5 -9
-17 -64 -25 -122 -25 -165 -45 -256 -64 -285 -9 -15 -30 -116 -30 -152 -1 -18
-5 -33 -11 -33 -5 0 -10 -13 -10 -29 0 -17 -4 -33 -10 -36 -6 -3 -10 -32 -10
-64 0 -31 -5 -62 -10 -67 -7 -7 -9 -79 -6 -210 5 -212 12 -303 27 -318 5 -6 9
-25 9 -43 0 -18 5 -33 10 -33 6 0 10 -12 10 -27 1 -46 29 -151 59 -218 70
-157 131 -267 195 -350 45 -58 221 -235 235 -235 6 0 11 -4 11 -9 0 -9 115
-81 130 -81 5 0 10 -4 12 -8 4 -11 131 -72 149 -72 8 0 34 -7 59 -16 25 -9 71
-21 103 -27 l59 -12 37 -75 c21 -41 52 -104 70 -140 18 -36 40 -81 51 -100 17
-32 19 -68 23 -484 3 -287 9 -451 15 -455 6 -3 12 -40 15 -81 3 -41 10 -106
17 -145 8 -49 8 -71 1 -73 -16 -5 -13 -22 3 -22 14 0 18 -13 32 -95 4 -22 9
-44 13 -50 3 -5 7 -18 8 -29 2 -10 10 -35 19 -55 9 -20 21 -47 26 -61 6 -14
14 -33 19 -42 5 -10 9 -23 9 -28 0 -33 131 -191 198 -239 80 -57 274 -84 417
-58 109 20 152 31 193 48 12 5 32 13 45 18 12 4 75 34 140 65 64 31 122 56
127 56 6 0 10 3 10 8 0 4 15 13 32 21 18 8 51 26 73 40 22 15 54 33 70 41 17
8 50 29 75 46 25 17 62 38 83 48 34 16 40 16 69 2 17 -9 39 -16 50 -16 10 0
18 -4 18 -10 0 -5 8 -10 17 -10 19 0 86 -22 93 -31 6 -7 13 -9 190 -56 178
-47 257 -63 403 -83 37 -5 82 -11 100 -14 17 -3 114 -10 213 -17 169 -11 439
-3 571 17 18 3 63 9 100 14 146 20 225 36 403 83 177 47 184 49 190 56 7 9 74
31 93 31 9 0 17 5 17 10 0 6 8 10 18 10 11 0 33 7 50 16 29 14 35 14 69 -2 21
-10 58 -31 83 -48 25 -17 59 -38 75 -46 17 -8 48 -26 70 -41 22 -14 55 -32 73
-40 17 -8 32 -17 32 -21 0 -5 4 -8 10 -8 5 0 63 -25 127 -56 65 -31 127 -60
138 -64 11 -4 31 -12 45 -18 42 -18 82 -28 195 -49 143 -26 337 1 417 58 67
48 198 206 198 239 0 5 4 18 9 28 5 9 13 28 19 42 5 14 17 41 26 61 9 20 17
45 19 55 1 11 5 24 8 29 4 6 9 28 13 50 14 82 18 95 32 95 16 0 19 17 3 22 -7
2 -7 24 1 73 7 39 14 104 17 145 3 41 9 78 15 81 6 4 12 168 15 455 4 416 6
452 23 484 11 19 33 64 51 100 18 36 49 99 70 140 l37 75 59 12 c32 6 78 18
103 27 25 9 51 16 59 16 18 0 145 61 149 72 2 4 7 8 12 8 15 0 130 72 130 81
0 5 5 9 11 9 14 0 190 177 235 235 64 83 125 193 195 350 30 67 58 172 59 218
0 15 5 27 10 27 6 0 10 15 10 33 0 18 4 37 9 42 15 16 22 107 27 319 3 131 1
203 -6 210 -5 5 -10 36 -10 67 0 32 -4 61 -10 64 -5 3 -10 19 -10 36 0 16 -4
29 -10 29 -5 0 -10 15 -11 33 0 36 -21 137 -30 152 -19 29 -39 120 -64 285 -8
58 -20 113 -25 122 -6 10 -10 27 -10 38 0 11 -4 20 -10 20 -5 0 -10 15 -10 34
0 19 -4 37 -8 40 -5 3 -14 31 -21 63 -7 32 -17 63 -21 68 -4 6 -11 26 -15 45
-4 19 -12 40 -17 47 -13 16 -48 114 -48 135 0 10 -4 18 -9 18 -5 0 -11 8 -14
18 -3 9 -13 28 -21 42 -8 14 -32 61 -52 105 -21 44 -41 82 -46 83 -4 2 -8 11
-8 21 0 9 -9 27 -20 39 -11 12 -20 28 -20 37 0 8 -4 15 -10 15 -5 0 -10 5 -10
10 0 15 -71 120 -81 120 -5 0 -9 9 -9 20 0 11 -4 20 -10 20 -5 0 -10 7 -10 15
0 8 -4 15 -8 15 -5 0 -15 12 -23 28 -8 15 -26 39 -41 54 -16 14 -28 31 -28 36
0 5 -16 24 -35 41 -19 17 -35 34 -35 39 0 12 -207 222 -218 222 -4 0 -28 20
-52 45 -24 25 -49 45 -55 45 -6 0 -17 9 -25 20 -8 11 -19 20 -25 20 -5 1 -26
14 -45 30 -19 17 -40 30 -47 30 -7 0 -22 9 -33 20 -19 19 -18 19 78 68 130 66
206 106 212 112 5 5 13 10 89 52 20 11 48 29 63 39 14 11 29 19 32 19 10 0
121 73 124 82 2 4 10 8 18 8 8 0 14 5 14 10 0 6 7 10 16 10 9 0 24 8 33 18 9
10 43 35 76 57 33 22 69 47 79 57 11 10 26 18 33 18 7 0 13 4 13 8 0 4 12 15
28 24 15 9 36 25 47 35 33 29 103 83 109 83 3 0 16 10 29 23 13 12 50 45 82
72 145 124 321 295 439 425 33 36 83 91 113 122 29 31 53 60 53 65 0 4 12 19
25 32 14 13 51 60 82 105 32 44 61 83 65 84 4 2 8 10 8 17 0 7 3 15 8 17 8 3
82 105 82 112 0 6 81 129 89 136 3 3 14 21 23 40 10 19 33 62 52 95 20 33 47
85 62 115 62 130 97 206 104 225 4 11 21 50 39 86 17 36 31 72 31 80 0 9 3 18
6 22 7 7 51 138 84 247 12 41 26 85 31 98 5 13 9 32 9 43 0 10 4 27 9 37 5 9
15 51 21 92 7 41 16 84 20 95 5 11 13 63 19 115 6 52 17 149 26 215 19 155 19
509 0 675 -22 185 -42 329 -55 380 -6 25 -13 64 -17 88 -3 23 -10 45 -14 48
-5 3 -9 18 -9 34 0 16 -4 32 -10 35 -5 3 -10 21 -10 40 0 19 -4 36 -9 39 -5 3
-11 20 -14 38 -2 18 -23 85 -46 148 -38 109 -51 142 -72 182 -5 10 -9 24 -9
32 0 8 -9 31 -19 53 -11 21 -33 67 -49 103 l-30 65 -1 610 c-1 773 -23 1259
-71 1605 -6 41 -15 111 -20 155 -10 80 -26 171 -54 315 -9 41 -17 85 -19 97
-2 12 -6 26 -10 29 -4 4 -7 22 -7 40 0 18 -4 36 -10 39 -5 3 -10 19 -10 36 0
16 -4 37 -9 47 -5 9 -15 37 -21 62 -26 92 -65 205 -72 208 -5 2 -8 8 -8 13 0
8 -11 35 -53 129 -18 39 -117 192 -144 222 -87 96 -140 142 -198 174 -11 6
-36 20 -55 30 -44 25 -108 44 -148 44 -17 0 -34 5 -37 10 -8 12 -362 14 -369
1 -3 -4 -31 -11 -63 -15 -60 -7 -156 -35 -161 -48 -2 -5 -14 -8 -27 -8 -13 0
-27 -4 -30 -10 -3 -5 -13 -10 -21 -10 -23 0 -206 -85 -284 -132 -19 -11 -60
-34 -90 -51 -30 -16 -62 -36 -71 -43 -8 -8 -20 -14 -25 -14 -5 0 -33 -18 -62
-40 -29 -22 -57 -40 -62 -40 -6 0 -10 -3 -10 -7 0 -5 -18 -16 -39 -27 -22 -10
-52 -32 -67 -47 -15 -16 -34 -29 -41 -29 -7 0 -13 -3 -13 -8 0 -4 -8 -12 -18
-17 -26 -14 -97 -65 -137 -97 -18 -16 -37 -28 -42 -28 -5 0 -15 -9 -23 -20 -8
-11 -20 -20 -26 -20 -6 0 -22 -10 -35 -23 -13 -13 -44 -37 -69 -54 -25 -17
-54 -40 -64 -52 -11 -11 -24 -21 -29 -21 -6 0 -31 -17 -56 -38 -42 -35 -79
-61 -120 -87 -8 -5 -20 -16 -26 -23 -6 -7 -20 -18 -31 -25 -36 -21 -117 -81
-142 -104 -12 -13 -29 -23 -37 -23 -7 0 -15 -4 -17 -8 -1 -5 -28 -26 -58 -46
-60 -41 -57 -41 -185 -7 -73 20 -189 44 -273 58 -18 3 -35 9 -38 14 -3 5 -20
9 -39 9 -19 0 -36 4 -39 9 -3 5 -59 14 -123 21 -65 6 -126 16 -135 21 -10 5
-38 9 -62 9 -25 0 -47 4 -50 8 -3 5 -22 10 -43 11 -21 1 -76 6 -123 12 -295
35 -785 47 -1205 30 -165 -7 -304 -16 -310 -21 -5 -4 -61 -11 -123 -15 -62 -4
-115 -11 -118 -16 -3 -5 -27 -9 -53 -9 -26 0 -51 -3 -55 -7 -4 -5 -65 -16
-134 -26 -197 -28 -202 -29 -208 -38 -3 -5 -16 -9 -29 -9 -13 0 -26 -4 -29 -9
-3 -4 -31 -11 -63 -15 -104 -12 -247 -48 -304 -76 -11 -6 -20 -2 -30 11 -7 10
-17 19 -22 19 -5 0 -22 10 -38 23 -15 12 -60 45 -100 72 -40 28 -87 62 -104
78 -18 15 -36 27 -39 27 -4 0 -32 19 -61 43 -30 23 -84 65 -121 92 -36 28 -71
55 -78 61 -10 9 -80 60 -169 121 -17 13 -47 35 -66 50 -19 16 -59 46 -90 67
-31 21 -57 43 -59 47 -2 5 -10 9 -18 9 -8 0 -14 5 -14 10 0 6 -6 10 -12 10 -7
0 -26 12 -43 26 -36 31 -111 84 -120 84 -3 0 -15 9 -27 20 -12 11 -28 20 -35
20 -7 0 -13 5 -13 10 0 6 -5 10 -12 10 -6 0 -25 11 -42 24 -17 12 -65 41 -106
63 -41 22 -93 50 -115 63 -91 53 -219 110 -244 110 -12 0 -21 5 -21 10 0 6 -9
10 -19 10 -11 0 -23 5 -26 10 -3 6 -16 10 -29 10 -12 0 -26 4 -32 9 -5 5 -38
15 -74 21 -36 6 -79 16 -96 21 -42 12 -361 12 -369 -1z"/>
</g>
</svg>
